<svg width="315" height="315" viewBox="0 0 315 315" fill="none" xmlns="http://www.w3.org/2000/svg">
<path d="M158.375 129.625C132.758 129.625 111.917 150.466 111.917 176.083C111.917 201.7 132.758 222.542 158.375 222.542C183.992 222.542 204.833 201.7 204.833 176.083C204.833 150.466 183.992 129.625 158.375 129.625ZM186.25 185.375C181.112 185.375 176.958 181.212 176.958 176.083C176.958 165.835 168.624 157.5 158.375 157.5C153.237 157.5 149.083 153.337 149.083 148.208C149.083 143.079 153.237 138.917 158.375 138.917C178.872 138.917 195.542 155.586 195.542 176.083C195.542 181.212 191.388 185.375 186.25 185.375Z" fill="#7962E6"/>
<path d="M209.758 73.875L204.555 53.0338C203.514 48.9083 199.807 46 195.542 46H121.208C116.944 46 113.236 48.9083 112.196 53.0338L106.992 73.875H209.758Z" fill="#7962E6"/>
<path d="M269.875 83.1667H212.081H104.669H46.875C31.5066 83.1667 19 95.6733 19 111.042V241.125C19 256.493 31.5066 269 46.875 269H269.875C285.243 269 297.75 256.493 297.75 241.125V111.042C297.75 95.6733 285.243 83.1667 269.875 83.1667ZM65.4583 138.917C60.32 138.917 56.1667 134.754 56.1667 129.625C56.1667 124.496 60.32 120.333 65.4583 120.333C70.5966 120.333 74.75 124.496 74.75 129.625C74.75 134.754 70.5966 138.917 65.4583 138.917ZM158.375 241.125C122.518 241.125 93.3333 211.949 93.3333 176.083C93.3333 140.218 122.518 111.042 158.375 111.042C194.232 111.042 223.417 140.218 223.417 176.083C223.417 211.949 194.232 241.125 158.375 241.125Z" fill="#7962E6"/>
</svg>
