<svg width="45" height="45" viewBox="0 0 45 45" fill="none" xmlns="http://www.w3.org/2000/svg">
<path d="M22.1096 4.71582C22.287 4.71582 22.4598 4.76928 22.6077 4.86719L22.6086 4.86621L26.5188 7.40723V5.625C26.5188 5.38548 26.6141 5.1557 26.7834 4.98633C26.9528 4.81701 27.1826 4.72168 27.4221 4.72168H33.0471C33.2865 4.72176 33.5165 4.81703 33.6858 4.98633C33.855 5.15568 33.9495 5.38558 33.9495 5.625V12.2734L41.9729 17.5186C42.1434 17.6203 42.2764 17.7755 42.3499 17.96C42.4233 18.1444 42.4339 18.348 42.3801 18.5391L42.3792 18.543C42.3212 18.7349 42.2009 18.9025 42.0374 19.0186C41.8762 19.1329 41.6819 19.1891 41.4846 19.1826V19.1846H36.762V39.375C36.7619 39.6144 36.6676 39.8443 36.4983 40.0137C36.329 40.183 36.099 40.2782 35.8596 40.2783H9.14087C8.90145 40.2783 8.67155 40.1829 8.5022 40.0137C8.33286 39.8443 8.23758 39.6145 8.23755 39.375V30.9375C8.23755 30.698 8.33283 30.4682 8.5022 30.2988C8.67156 30.1295 8.90139 30.0342 9.14087 30.0342C9.38028 30.0343 9.61024 30.1295 9.77954 30.2988C9.94877 30.4682 10.0432 30.6981 10.0432 30.9375V38.4717H14.5657V28.125C14.5657 27.8855 14.661 27.6557 14.8303 27.4863C14.9997 27.317 15.2295 27.2217 15.469 27.2217H29.5315C29.7709 27.2218 30.0009 27.317 30.1702 27.4863C30.3394 27.6557 30.4338 27.8856 30.4338 28.125V38.4717H34.9563V18.2744C34.9563 18.0349 35.0516 17.8051 35.2209 17.6357C35.3903 17.4664 35.6201 17.3711 35.8596 17.3711H38.4641L32.5647 13.5195H32.5637C32.4383 13.4369 32.3358 13.3238 32.2649 13.1914C32.1939 13.059 32.1568 12.911 32.1575 12.7607V6.52832H28.3391V9.04883L28.3313 9.16992C28.3154 9.28979 28.2751 9.40593 28.2131 9.51074C28.1305 9.65046 28.0118 9.76583 27.8694 9.84375L27.8684 9.84277C27.7323 9.92032 27.5788 9.96186 27.4221 9.96191C27.2636 9.96191 27.1073 9.92009 26.97 9.84082L26.9612 9.83594L22.1497 6.70801L6.45044 17.3779H9.14087C9.38028 17.378 9.61024 17.4733 9.77954 17.6426C9.94877 17.8119 10.0432 18.0418 10.0432 18.2812V28.125C10.0432 28.3644 9.94882 28.5943 9.77954 28.7637C9.61024 28.933 9.38028 29.0282 9.14087 29.0283C8.90145 29.0283 8.67155 28.9329 8.5022 28.7637C8.33286 28.5943 8.23758 28.3645 8.23755 28.125V19.1846H3.51587V19.1826C3.31851 19.1893 3.12434 19.1329 2.96313 19.0186C2.8 18.9027 2.68045 18.7354 2.62231 18.5439C2.56435 18.3579 2.56714 18.1583 2.63208 17.9746C2.69717 17.7907 2.82038 17.6326 2.98267 17.5244L21.6067 4.86914L21.6086 4.86816C21.757 4.76916 21.9312 4.71584 22.1096 4.71582ZM16.3713 38.4717H28.6282V29.0283H25.512V32.3447C25.5111 32.5072 25.4668 32.6664 25.3831 32.8057C25.2991 32.945 25.1788 33.059 25.0354 33.1357C24.8921 33.2125 24.731 33.2495 24.5686 33.2422C24.4062 33.2348 24.2483 33.1841 24.1125 33.0947L24.1116 33.0938L22.4993 32.0205L20.8733 33.0938L20.8723 33.0947C20.739 33.181 20.5846 33.2313 20.426 33.2393C20.2677 33.2471 20.11 33.213 19.969 33.1406L19.9661 33.1387C19.8219 33.0619 19.7007 32.9475 19.6165 32.8076C19.5323 32.6677 19.488 32.507 19.4875 32.3438V29.0283H16.3713V38.4717ZM21.2932 30.6475L21.9993 30.1611L22.0032 30.1582C22.1506 30.0612 22.3237 30.0098 22.5002 30.0098C22.6765 30.0098 22.8491 30.0613 22.9963 30.1582L23.0002 30.1611L23.7063 30.6475V29.0283H21.2932V30.6475Z" fill="#7962E6" stroke="#7962E6" stroke-width="0.4"/>
<path d="M26.7188 35.8594H23.9062C23.7198 35.8594 23.5409 35.9335 23.4091 36.0653C23.2772 36.1972 23.2031 36.376 23.2031 36.5625C23.2031 36.749 23.2772 36.9278 23.4091 37.0597C23.5409 37.1915 23.7198 37.2656 23.9062 37.2656H26.7188C26.9052 37.2656 27.0841 37.1915 27.2159 37.0597C27.3478 36.9278 27.4219 36.749 27.4219 36.5625C27.4219 36.376 27.3478 36.1972 27.2159 36.0653C27.0841 35.9335 26.9052 35.8594 26.7188 35.8594Z" fill="#7962E6"/>
<path d="M22.7891 11.0576C24.2287 11.1291 25.5951 11.7318 26.6191 12.7559C27.7115 13.8483 28.3252 15.3301 28.3252 16.875C28.3252 17.6529 28.0207 18.5334 27.5762 19.4102C27.1297 20.2907 26.5314 21.1879 25.9199 22.0049C24.6967 23.6394 23.4082 24.9721 23.1416 25.2422L23.1406 25.2412C23.0571 25.3263 22.9585 25.395 22.8486 25.4414C22.7386 25.4879 22.6204 25.5122 22.501 25.5127H22.499C22.3796 25.5122 22.2614 25.4879 22.1514 25.4414C22.0413 25.3949 21.942 25.3265 21.8584 25.2412C21.5909 24.9701 20.3027 23.6385 19.0801 22.0049C18.4686 21.1879 17.8703 20.2907 17.4238 19.4102C16.9793 18.5334 16.6748 17.6529 16.6748 16.875L16.6826 16.5859C16.7541 15.1463 17.3568 13.7799 18.3809 12.7559C19.4733 11.6635 20.9551 11.0498 22.5 11.0498L22.7891 11.0576ZM22.5 12.8564C21.4342 12.8564 20.4119 13.2795 19.6582 14.0332C18.9045 14.7869 18.4814 15.8092 18.4814 16.875C18.4814 17.279 18.635 17.7879 18.9072 18.3633C19.1777 18.9349 19.5565 19.5545 19.9854 20.1738C20.7879 21.3327 21.7586 22.4768 22.499 23.29C23.2394 22.4764 24.2117 21.328 25.0146 20.166C25.4435 19.5453 25.8222 18.9252 26.0928 18.3545C26.3652 17.7797 26.5186 17.2735 26.5186 16.875C26.5186 15.8092 26.0955 14.7869 25.3418 14.0332C24.5881 13.2795 23.5658 12.8564 22.5 12.8564Z" fill="#7962E6" stroke="#7962E6" stroke-width="0.4"/>
<path d="M25.3125 16.875C25.3125 16.3187 25.1476 15.775 24.8385 15.3125C24.5295 14.8499 24.0902 14.4895 23.5763 14.2766C23.0624 14.0637 22.4969 14.008 21.9513 14.1165C21.4057 14.2251 20.9046 14.4929 20.5113 14.8863C20.1179 15.2796 19.8501 15.7807 19.7415 16.3263C19.633 16.8719 19.6887 17.4374 19.9016 17.9513C20.1145 18.4652 20.4749 18.9045 20.9375 19.2135C21.4 19.5226 21.9437 19.6875 22.5 19.6875C23.2459 19.6875 23.9613 19.3912 24.4887 18.8637C25.0162 18.3363 25.3125 17.6209 25.3125 16.875ZM21.0938 16.875C21.0938 16.5969 21.1762 16.325 21.3307 16.0937C21.4853 15.8625 21.7049 15.6822 21.9619 15.5758C22.2188 15.4694 22.5016 15.4415 22.7743 15.4958C23.0471 15.55 23.2977 15.684 23.4944 15.8806C23.691 16.0773 23.825 16.3279 23.8792 16.6007C23.9335 16.8734 23.9056 17.1562 23.7992 17.4132C23.6928 17.6701 23.5125 17.8897 23.2813 18.0443C23.05 18.1988 22.7781 18.2813 22.5 18.2813C22.127 18.2813 21.7694 18.1331 21.5056 17.8694C21.2419 17.6056 21.0938 17.248 21.0938 16.875Z" fill="#7962E6"/>
</svg>
