<svg width="45" height="45" viewBox="0 0 45 45" fill="none" xmlns="http://www.w3.org/2000/svg">
<g clip-path="url(#clip0_1151_41)">
<path d="M22.4998 8.96006C22.9851 8.96006 23.3787 8.56648 23.3787 8.08115V3.604C23.3787 3.11867 22.9852 2.7251 22.4998 2.7251C22.0143 2.7251 21.6208 3.11858 21.6208 3.604V8.08115C21.6209 8.56648 22.0144 8.96006 22.4998 8.96006Z" fill="#7962E6"/>
<path d="M15.8917 10.4041C16.0588 10.6692 16.3442 10.8144 16.6361 10.8144C16.7962 10.8144 16.9584 10.7707 17.1038 10.679C17.5145 10.4202 17.6375 9.87751 17.3788 9.46679L15.037 5.75122C14.7782 5.34059 14.2354 5.21746 13.8249 5.4763C13.4143 5.73505 13.2912 6.27777 13.55 6.68848L15.8917 10.4041Z" fill="#7962E6"/>
<path d="M27.8983 10.6792C28.0437 10.7707 28.2057 10.8144 28.3657 10.8144C28.6577 10.8144 28.9432 10.669 29.1103 10.4036L31.4496 6.68806C31.7082 6.27726 31.5849 5.73471 31.1741 5.47596C30.7631 5.21748 30.2207 5.34088 29.962 5.7515L27.6228 9.46708C27.3642 9.87796 27.4876 10.4205 27.8983 10.6792Z" fill="#7962E6"/>
<path d="M44.7167 23.4168L43.1896 20.719C42.9503 20.2964 42.414 20.1479 41.9919 20.3871C41.5694 20.6263 41.4209 21.1625 41.66 21.5848L43.1864 24.2815C43.2629 24.417 43.243 24.5477 43.2244 24.6135C43.2065 24.6769 43.1571 24.7939 43.0279 24.8652L40.6743 26.1689C40.4652 26.2844 40.1923 26.2115 40.0783 26.0104L39.4804 24.9527C39.478 24.948 39.4751 24.9436 39.4726 24.9389L33.2913 14.0058C33.2149 13.8713 33.2342 13.7422 33.2525 13.6773C33.2702 13.6145 33.3192 13.4984 33.4484 13.4269L35.8047 12.123C36.0165 12.0057 36.2827 12.0769 36.3985 12.282L37.776 14.716C38.0152 15.1385 38.5516 15.2869 38.9738 15.048C39.3963 14.8089 39.5448 14.2726 39.3058 13.8502L37.9288 11.4173C37.3415 10.3761 36.0072 10.0027 34.9541 10.5848L32.5978 11.8887C32.0879 12.1705 31.7196 12.6362 31.5607 13.2004C31.4107 13.7323 31.4644 14.2876 31.7098 14.775L30.4119 15.1511C29.859 15.3111 29.5234 15.3978 29.3371 15.3978C29.3364 15.3978 29.3356 15.3978 29.3349 15.3978C29.2067 15.3974 29.0669 15.3484 28.6678 15.1973C28.4867 15.1287 28.2613 15.0433 27.9842 14.9466L25.6845 14.1427C24.4126 13.6985 23.839 13.7224 23.0079 13.7982L19.0865 14.1492C17.2989 14.3076 16.1593 14.7108 15.5301 15.4101L13.2954 14.7627C13.5359 14.2774 13.5875 13.7275 13.439 13.2004C13.2801 12.6366 12.912 12.1709 12.4026 11.8892L10.0477 10.5846C8.99371 10.002 7.65857 10.3756 7.07119 11.4165L0.285686 23.4156C-0.00479223 23.927 -0.0766868 24.5219 0.08345 25.0906C0.242532 25.6554 0.610794 26.1216 1.11968 26.403L3.47462 27.7074C3.81133 27.8935 4.17713 27.9819 4.5381 27.9819C5.30494 27.9819 6.05043 27.583 6.45113 26.8756L6.69994 26.4354C7.37899 26.7343 7.94913 27.1686 8.3377 27.6828C7.95819 28.1263 7.71912 28.6735 7.65206 29.2688C7.56347 30.0561 7.78583 30.8285 8.2782 31.4441C8.76634 32.0545 9.46437 32.4397 10.2449 32.5304C10.1623 33.3109 10.3855 34.0757 10.8741 34.6846C11.3792 35.316 12.0929 35.6843 12.8395 35.7712C12.7573 36.5507 12.9797 37.3148 13.4668 37.9239C13.9547 38.5357 14.6529 38.9216 15.4343 39.0123C15.3515 39.7935 15.5748 40.5587 16.0634 41.1676C16.6457 41.8957 17.5055 42.2748 18.3734 42.2747C19.0213 42.2747 19.6738 42.0634 20.2186 41.6284L22.0588 40.1558C22.205 40.0392 22.3378 39.9103 22.4572 39.7714L23.5084 40.6111C24.052 41.0449 24.703 41.2557 25.3501 41.2556C26.2184 41.2555 27.0796 40.876 27.6627 40.1472C27.9701 39.763 28.1647 39.3244 28.2526 38.8717C28.5599 38.978 28.8844 39.033 29.2152 39.0329C29.3262 39.0329 29.4378 39.0267 29.5497 39.0143C30.3372 38.9269 31.0414 38.5396 31.5307 37.926C32.0202 37.3162 32.2434 36.5514 32.1609 35.771C32.907 35.6839 33.6211 35.3156 34.1276 34.6845C34.6321 34.0537 34.8346 33.2771 34.7553 32.5302C35.5355 32.4393 36.2331 32.0543 36.7201 31.4453C37.2128 30.8313 37.4362 30.06 37.3489 29.2734C37.2826 28.6763 37.0434 28.1271 36.6632 27.6824C37.0506 27.1684 37.6196 26.7336 38.2991 26.4349L38.5484 26.8759C38.9489 27.5831 39.694 27.9818 40.461 27.9818C40.8222 27.9818 41.1883 27.8933 41.5254 27.707L43.879 26.4032C44.3877 26.122 44.7558 25.6565 44.9155 25.0927C45.0765 24.5245 45.0061 23.9297 44.7167 23.4168ZM4.9213 26.0099C4.80704 26.2117 4.53397 26.2845 4.32575 26.1693L1.9709 24.865C1.84232 24.7938 1.79327 24.6772 1.77534 24.6141C1.75698 24.5486 1.73738 24.4186 1.8149 24.2824L8.60146 12.2809C8.67915 12.1432 8.82558 12.066 8.97763 12.066C9.05163 12.066 9.12687 12.0842 9.1963 12.1226L11.5505 13.4267C11.5508 13.4269 11.5511 13.4271 11.5513 13.4272C11.6802 13.4984 11.7291 13.6145 11.7469 13.6774C11.7652 13.7423 11.7845 13.8714 11.7072 14.0074L4.9213 26.0099ZM11.335 30.5328C11.0872 30.7313 10.7742 30.8211 10.4544 30.7855C10.1344 30.75 9.84915 30.594 9.65105 30.3464C9.4525 30.0981 9.36303 29.7852 9.39898 29.4654C9.43475 29.147 9.59075 28.8632 9.83984 28.665L13.1303 26.0348C13.6467 25.6225 14.4027 25.7073 14.8154 26.2228C15.0139 26.4709 15.1034 26.7833 15.0676 27.1021C15.0319 27.4198 14.8758 27.7033 14.6281 27.9004C14.6227 27.9047 14.618 27.9095 14.6127 27.914L11.3358 30.5322C11.3356 30.5323 11.3353 30.5326 11.335 30.5328ZM12.2459 33.5856C12.0476 33.3383 11.9579 33.0268 11.9933 32.7083C12.0288 32.3895 12.1849 32.1044 12.433 31.9055L12.4332 31.9053C12.4334 31.9052 12.4336 31.905 12.4338 31.9049C12.4338 31.9049 12.4338 31.9048 12.4339 31.9048L17.1735 28.1181C17.6899 27.7057 18.446 27.7899 18.8586 28.3061C19.0568 28.5538 19.1464 28.8659 19.111 29.1845C19.0755 29.5036 18.9189 29.7887 18.6702 29.9873L13.9318 33.7726C13.4149 34.1852 12.659 34.1019 12.2459 33.5856ZM15.6436 37.2673C15.3237 37.2318 15.0387 37.0757 14.8404 36.827C14.6422 36.5792 14.5526 36.2672 14.588 35.9485C14.6235 35.6297 14.7799 35.3449 15.0282 35.1463C15.0284 35.1461 15.0286 35.1459 15.0288 35.1457L18.3087 32.5255C18.3126 32.5225 18.3168 32.52 18.3207 32.5169C18.8357 32.1046 19.5916 32.1886 20.0047 32.7034C20.2032 32.9516 20.2928 33.2645 20.2568 33.5843C20.221 33.9027 20.0649 34.1865 19.8159 34.3847L16.5256 37.0148C16.2769 37.2134 15.9636 37.3026 15.6436 37.2673ZM21.402 37.9808C21.3664 38.2996 21.2102 38.5841 20.9615 38.7827L19.1212 40.2555C18.6041 40.6682 17.8483 40.5851 17.4353 40.0687C17.237 39.8216 17.1472 39.5098 17.1827 39.1906C17.2181 38.8715 17.3741 38.5868 17.6217 38.3891C17.6219 38.3889 17.6223 38.3886 17.6226 38.3884L19.4625 36.9177C19.4634 36.9169 19.4645 36.9163 19.4654 36.9156C19.982 36.5034 20.7379 36.5878 21.1507 37.1036C21.3483 37.3509 21.4377 37.6623 21.402 37.9808ZM35.3483 30.3463C35.1502 30.594 34.8649 30.75 34.545 30.7855C34.2254 30.8214 33.9122 30.7314 33.6643 30.5328C33.6643 30.5327 33.6641 30.5326 33.6639 30.5325C33.6638 30.5324 33.6636 30.5323 33.6636 30.5323L31.3118 28.6532C30.9324 28.3502 30.3794 28.4121 30.0766 28.7912C29.7736 29.1704 29.8354 29.7235 30.2146 30.0264L32.5655 31.9048C33.0813 32.3178 33.1663 33.0723 32.7558 33.5855C32.3417 34.1016 31.5857 34.1855 31.0696 33.7722L28.5186 31.7364C28.1393 31.4338 27.5863 31.4959 27.2835 31.8752C26.9808 32.2546 27.0428 32.8076 27.4223 33.1104L29.9721 35.1451C30.2205 35.3441 30.3769 35.6294 30.4124 35.9485C30.4478 36.267 30.3582 36.5787 30.1581 36.8279C29.9605 37.0757 29.6755 37.2317 29.3557 37.2673C29.0355 37.3026 28.7222 37.2132 28.4745 37.0155L27.2052 36.0004C27.203 35.9986 27.201 35.9968 27.1989 35.995L26.1264 35.1376L25.9259 34.9773C25.5467 34.6741 24.9937 34.7357 24.6906 35.1147C24.6527 35.1622 24.6205 35.2123 24.5939 35.2643C24.4667 35.513 24.4688 35.8047 24.5882 36.0493C24.6435 36.1626 24.7231 36.2661 24.8281 36.35L26.1043 37.3707C26.6167 37.7844 26.7004 38.5363 26.2902 39.0491C25.8774 39.5651 25.1214 39.6494 24.6052 39.2376L23.1572 38.0808C23.2175 37.3286 22.9946 36.595 22.5232 36.0055C22.2301 35.6392 21.8667 35.3618 21.4676 35.1758C21.7601 34.77 21.9458 34.2933 22.0035 33.7807C22.0921 32.9935 21.8697 32.2212 21.3764 31.6044C21.0833 31.2392 20.7203 30.9624 20.322 30.7768C20.6151 30.3697 20.8008 29.8921 20.8579 29.3788C20.9453 28.5934 20.7228 27.8225 20.2313 27.2079C19.3856 26.1506 17.9555 25.8291 16.7652 26.3343C16.6699 25.8968 16.4752 25.4841 16.1878 25.1247C15.1702 23.8531 13.3068 23.6451 12.0331 24.6613L9.67979 26.5424C9.14761 25.8632 8.42418 25.3 7.56883 24.8984L12.4098 16.336L14.9872 17.0828C14.999 17.2207 15.0213 17.3657 15.0587 17.5193C15.6826 20.0847 18.0446 21.28 21.223 20.6396C23.901 20.1007 25.0035 20.9034 27.1993 22.5024C27.4271 22.6682 27.6638 22.8406 27.9116 23.018C29.4907 24.151 31.1782 25.4826 32.3096 26.3851L35.1625 28.6652C35.4104 28.863 35.5664 29.1477 35.6018 29.4671C35.6372 29.7862 35.5476 30.0981 35.3483 30.3463ZM35.321 26.5418L33.4065 25.0118C32.2594 24.0967 30.5481 22.7465 28.9357 21.5897C28.6914 21.4147 28.4584 21.2449 28.2341 21.0816C25.9572 19.4236 24.3116 18.2256 20.8762 18.9165C19.8247 19.1284 17.3194 19.3762 16.7668 17.1044C16.689 16.7837 16.7681 16.6735 16.8017 16.6265C16.9193 16.4626 17.3921 16.0639 19.2421 15.9001L23.1676 15.5488C23.8072 15.4904 24.1281 15.461 25.1044 15.8021L27.4043 16.6061C27.66 16.6954 27.8644 16.7727 28.0449 16.8411C29.1523 17.2606 29.4458 17.2605 30.9006 16.8394L32.5962 16.3481L37.4306 24.8989C36.575 25.3003 35.8523 25.8631 35.321 26.5418Z" fill="#7962E6"/>
<path d="M40.48 18.5975C40.9653 18.5975 41.3589 18.2027 41.3589 17.7173C41.3589 17.2319 40.9653 16.8384 40.48 16.8384C39.9946 16.8384 39.6011 17.232 39.6011 17.7173V17.7197C39.6011 18.2052 39.9946 18.5975 40.48 18.5975Z" fill="#7962E6"/>
</g>
<defs>
<clipPath id="clip0_1151_41">
<rect width="45" height="45" fill="white"/>
</clipPath>
</defs>
</svg>
