<svg width="20" height="20" viewBox="0 0 20 20" fill="none" xmlns="http://www.w3.org/2000/svg">
<g clip-path="url(#clip0_938_5)">
<path d="M15.7299 0L16.7299 1.79001C17.0288 2.33368 17.4762 2.7811 18.0199 3.08002L19.7999 4.08002L18.0199 5.08002C17.4738 5.37574 17.0256 5.82397 16.7299 6.37003L15.7299 8.15002L14.7299 6.37003C14.431 5.82636 13.9836 5.37893 13.4399 5.08002L11.6499 4.08002L13.4399 3.08002C13.9816 2.77848 14.4284 2.33171 14.7299 1.79001L15.7299 0Z" fill="white"/>
<path d="M7.87 3.54999L9.76001 7.00998C10.3393 8.06959 11.2104 8.94074 12.27 9.51999L15.73 11.41L12.27 13.31C11.2104 13.8892 10.3393 14.7604 9.76001 15.82L7.87 19.28L5.97003 15.82C5.39168 14.7631 4.5246 13.8925 3.47003 13.31L0 11.41L3.47003 9.51999C4.5246 8.93743 5.39168 8.06687 5.97003 7.00998L7.87 3.54999Z" fill="white"/>
</g>
<defs>
<clipPath id="clip0_938_5">
<rect width="20" height="20" fill="white"/>
</clipPath>
</defs>
</svg>
